<svg xmlns="http://www.w3.org/2000/svg" xmlns:xlink="http://www.w3.org/1999/xlink" viewBox="0 0 400 300" width="406" height="306" class="illustration styles_illustrationTablet__1DWOa"><defs><linearGradient id="linear-gradient" x1="343.24" y1="207.6" x2="315.98" y2="178.14" gradientUnits="userSpaceOnUse"><stop offset="0" stop-color="#fff" stop-opacity="0"></stop><stop offset="0.99" stop-color="gray"></stop></linearGradient><linearGradient id="linear-gradient-2" x1="145.63" y1="217.73" x2="99.92" y2="183.88" xlink:href="#linear-gradient"></linearGradient><linearGradient id="linear-gradient-3" x1="197.83" y1="131.02" x2="177.84" y2="116.23" xlink:href="#linear-gradient"></linearGradient></defs><title>PP</title><g style="isolation: isolate;"><g id="Layer_2" data-name="Layer 2"><path d="M194.28,288.83,14.56,182.61c-5.72-3.21-10.63-8.49-5.05-11.94l180.37-104c2.71-1.68,6.82-2.78,9.57-1.18L388.11,175c5.72,3.32,6.75,12.6,1,15.93L218,288.66A23.9,23.9,0,0,1,194.28,288.83Z" fill="#da2e81"></path><path d="M383,191.71l-39.24-25L283.2,201.52l37.9,23.6C340.64,212.44,362.69,203.2,383,191.71Z" opacity="0.91" fill="url(#linear-gradient)" style="mix-blend-mode: multiply;"></path><polygon points="345.56 169.79 345.56 173.18 344.52 171.48 345.56 169.79" fill="#756373"></polygon><polygon points="203.42 150.63 203.42 153.89 206.05 152.14 203.42 150.63" fill="#756373"></polygon><path d="M205.54,157.42l81.71,46.81a9.24,9.24,0,0,0,9.27,0l46.95-27.51a4.22,4.22,0,0,0,0-7.3L261.36,122a8,8,0,0,0-8.1,0L205.5,150.11A4.22,4.22,0,0,0,205.54,157.42Z" fill="#513f2c"></path><path d="M205.54,154.17,287.26,201a9.24,9.24,0,0,0,9.27,0l46.95-27.51a4.22,4.22,0,0,0,0-7.3l-82.09-47.36a8,8,0,0,0-8.1,0L205.5,146.86A4.22,4.22,0,0,0,205.54,154.17Z" fill="#68e1fd"></path><path d="M215,150.17l14.35,8.39a2.19,2.19,0,0,0,2.28,0l8-5.07a1.25,1.25,0,0,0,0-2.13l-15-8.65a1.91,1.91,0,0,0-2,.09l-7.58,5.31A1.25,1.25,0,0,0,215,150.17Z" fill="#fff"></path><ellipse cx="284.33" cy="181.8" rx="7.57" ry="5.33" fill="#ff4700"></ellipse><ellipse cx="292.48" cy="186.42" rx="7.57" ry="5.33" fill="#ffdf24"></ellipse><polygon points="231.39 131.65 323.42 185.17 337.63 176.84 244.44 123.98 231.39 131.65" fill="#513f2c"></polygon><polyline points="287.29 164.1 301 156.06 284.31 146.6" fill="#302214"></polyline><path d="M274,138a26.7,26.7,0,0,0-9.48,2c-4.79,2.06,9.32,6.21,9.32,6.21" fill="#f2ae16"></path><path d="M275.23,156.71c4.09,2.3,8,5,12.06,7.39a16.6,16.6,0,0,0,2-14.61c-2.75-8.48-11.25-13.32-19-10.82a14.36,14.36,0,0,0-9.28,10C265.75,151.33,270.47,154,275.23,156.71Z" fill="#ea8b24"></path><path d="M275.23,156.71c3.1,1.74,6.09,3.7,9.12,5.59a16.91,16.91,0,0,0,.49-11.93c-2.75-8.48-11.25-13.32-19-10.82a14,14,0,0,0-8.25,7.3C263.52,150,269.35,153.41,275.23,156.71Z" fill="#ffd008"></path><path d="M275.69,156.22c2.54,1.43,5,3,7.49,4.57a14.82,14.82,0,0,0,.38-10.35c-2.41-7.43-9.86-11.68-16.65-9.48a12.28,12.28,0,0,0-7.18,6.31C265.09,150.19,270.37,153.24,275.69,156.22Z" fill="none" stroke="#f7931e" stroke-miterlimit="10"></path><path d="M275.23,156.71l.8.47a3.68,3.68,0,0,0-.7-2.23,4.25,4.25,0,0,0-1.8-1.4q-1.07-.43-2.13-.76a7.69,7.69,0,0,1-1.8-.79,1.35,1.35,0,0,1-.72-1.21,1.42,1.42,0,0,1,.57-1.11,2.19,2.19,0,0,1,1.47-.44,3.28,3.28,0,0,1,1.46.38,4.24,4.24,0,0,1,.92.58q.22.22.34.36l1.94-2-.33-.37a5.07,5.07,0,0,0-1.16-.84,6.47,6.47,0,0,0-1.84-.71l0-2.05-2.75-.05,0,2a4.82,4.82,0,0,0-2.88,1.45,4,4,0,0,0-1.11,2.68,5,5,0,0,0,0,.5C268.75,153,272,154.89,275.23,156.71Z" fill="#ea8b24"></path><path d="M170.21,211.18c-4.72,1.45-4.26,6.3-9.11,7.28-3,.6-3.81,7.47-6.8,7.69l-20.91,15.91-62-38.63L129.53,170l50,32.15C171.79,207.88,179.33,208.39,170.21,211.18Z" opacity="0.91" fill="url(#linear-gradient-2)" style="mix-blend-mode: multiply;"></path><polyline points="125.98 15.14 132.26 17.92 126.23 20.58 124.77 17.46" fill="#ef7f6c"></polyline><path d="M68.72,199.78l52.21-30.43a13.92,13.92,0,0,0,6.91-12l1.68-138.21c0-3.63-5.63-5.47-8.75-3.63l-54,31.91a9,9,0,0,0-4.4,7.71v141A4.23,4.23,0,0,0,68.72,199.78Z" fill="#ef7f6c"></path><polyline points="64.53 199.83 71.36 203.43 70.57 198.67 65.83 197.82" fill="#ef7f6c"></polyline><path d="M75.26,203.25l52.21-30.43a13.92,13.92,0,0,0,6.91-12V21.27a3.7,3.7,0,0,0-5.58-3.18L73.3,50.87a9,9,0,0,0-4.4,7.71v141A4.23,4.23,0,0,0,75.26,203.25Z" fill="#f4f4f4"></path><polygon points="72.22 67.09 131.71 32.98 131.71 155.04 72.22 189.43 72.22 67.09" fill="#68e1fd"></polygon><ellipse cx="107.5" cy="177.31" rx="3.7" ry="2.74" transform="translate(-89.92 240.7) rotate(-76.57)" fill="#bababc"></ellipse><path d="M109.72,38.85h0a1.33,1.33,0,0,1-.67,1.15L97.57,46.61a1.33,1.33,0,0,1-2-1.15v-.28A1.33,1.33,0,0,1,96.26,44l11.49-6.32A1.33,1.33,0,0,1,109.72,38.85Z" fill="#ccc"></path><ellipse cx="115" cy="35.34" rx="1.77" ry="1.3" transform="translate(41.95 130.93) rotate(-69.69)" fill="#ccc"></ellipse><ellipse cx="86.85" cy="163.42" rx="7.73" ry="5.75" transform="matrix(0.3, -0.95, 0.95, 0.3, -95.2, 196.7)" fill="#f2f2f2"></ellipse><ellipse cx="87.18" cy="161.52" rx="3.02" ry="2.07" transform="translate(-89.17 212.39) rotate(-77.73)" fill="#c4b7b3"></ellipse><path d="M83.12,170s1.24-5.44,4.38-6.11,3.91,3.32,3.91,3.32a6.92,6.92,0,0,1-4.14,3.52C84.12,171.83,83.12,170,83.12,170Z" fill="#c4b7b3"></path><ellipse cx="105.25" cy="152.72" rx="8.37" ry="6.23" transform="translate(-72.17 206.78) rotate(-72.37)" fill="#ea7554"></ellipse><path d="M102.65,148.88c.2-.06,2,1,1.89,1.41s-.9,1.61-.81,1.84,1.86,2.45,2.88,2.59a12.89,12.89,0,0,0,1.87-1.44,2,2,0,0,1,1.27,1.52,5.79,5.79,0,0,1-2.64,2.12c-1.31.45-5.35-4-5.83-5.19S102.65,148.88,102.65,148.88Z" fill="#fff"></path><path d="M117.54,141.83v7.72a1.6,1.6,0,0,0,2.37,1.4L127,147a1.6,1.6,0,0,0,.83-1.4v-7.9a1.6,1.6,0,0,0-2.39-1.39l-7.13,4.1A1.6,1.6,0,0,0,117.54,141.83Z" fill="#ffac99"></path><ellipse cx="123.2" cy="144.1" rx="3.07" ry="2.22" transform="translate(-57.85 200.36) rotate(-66.73)" fill="#fff"></ellipse><ellipse cx="105.04" cy="101.78" rx="24.72" ry="15.28" transform="translate(-23.77 171.06) rotate(-72.37)" fill="#513f2c" opacity="0.15"></ellipse><path d="M106.44,87.36l0,3.1a3.42,3.42,0,0,1,1.78.24,2.94,2.94,0,0,1,1.13.73l.33.4-1.84,3.86a3.9,3.9,0,0,0-.33-.4,2.3,2.3,0,0,0-.9-.44,1.87,1.87,0,0,0-1.41.09,3,3,0,0,0-1.41,1.32,3.93,3.93,0,0,0-.54,1.94,1.49,1.49,0,0,0,.71,1.49,3.93,3.93,0,0,0,1.75.37,14.92,14.92,0,0,1,2.06.17,2.6,2.6,0,0,1,1.75,1.28,6.07,6.07,0,0,1,.71,3.32,11.78,11.78,0,0,1-1,4.85,9.15,9.15,0,0,1-2.86,3.67l0,3.1-2.65,1.18v-3a4.17,4.17,0,0,1-1.52,0,3.6,3.6,0,0,1-1.2-.37,6.3,6.3,0,0,1-.84-.57,3.26,3.26,0,0,1-.52-.52l-.17-.26,1.85-3.69a5.13,5.13,0,0,0,.39.47,2.63,2.63,0,0,0,1.12.58,2.51,2.51,0,0,0,1.82-.14,3.72,3.72,0,0,0,1.73-1.58,4.61,4.61,0,0,0,.63-2.33,1.49,1.49,0,0,0-.71-1.49,3.69,3.69,0,0,0-1.75-.37,12.31,12.31,0,0,1-2.06-.17,2.59,2.59,0,0,1-1.75-1.29,6.11,6.11,0,0,1-.71-3.31,11,11,0,0,1,1-4.54,8.66,8.66,0,0,1,2.76-3.5V88.53Z" fill="#fff"></path><polygon points="237.59 221.56 237.59 235.19 211.59 235.19 211.59 251.05 188.09 229.15 210.32 207.25 210.32 223.06 237.59 221.56" fill="#d65f43"></polygon><polygon points="207.82 254.63 211.59 251.05 211.59 235.19 233.81 238.77 237.59 235.19 234.4 229.73 203.42 233.84 207.82 254.63" fill="#d65f43"></polygon><polygon points="233.81 225.14 233.81 238.77 207.82 238.77 207.82 254.63 184.31 232.72 206.55 210.82 206.55 226.64 233.81 225.14" fill="#ffd008"></polygon><polygon points="148.67 191.46 148.67 205.09 174.67 205.09 174.67 220.94 198.17 199.04 175.94 177.14 175.94 192.96 148.67 191.46" fill="#d65f43"></polygon><polygon points="175.94 177.14 172.52 180.3 173.82 192.09 172.52 194.13 148.67 191.46 145.26 194.62 150.39 199.73 176.24 197.99 175.94 177.14" fill="#d65f43"></polygon><polygon points="145.26 194.62 145.26 208.25 171.25 208.25 171.25 224.1 194.75 202.2 172.52 180.3 172.52 196.11 145.26 194.62" fill="#ffd008"></polygon><path d="M181.24,112.48l-11.79,6.77,27.11,16.88,9.14-7a1.47,1.47,0,0,0,1-.8C198.34,122.91,189.91,117.49,181.24,112.48Z" opacity="0.91" fill="url(#linear-gradient-3)" style="mix-blend-mode: multiply;"></path><path d="M165.77,103,169,118.09a3.39,3.39,0,0,0,1.82,2.33c1.88.92,5.75,1.88,13.11.54a3.41,3.41,0,0,0,2.72-2.62L190,103" fill="#68e1fd"></path><ellipse cx="177.86" cy="103.04" rx="12.09" ry="4.95" fill="#124577"></ellipse><path d="M170.83,91.89a3.88,3.88,0,0,1-1.4-1.3l-6.8-10.53c-3.15-4.88-4.3-39.87,4-40.31,6.56-.35,13.31,15,15.66,19.47,2.2,4.2,4.61,8.67,5.92,13.25,2,6.9-2.51,12.94-6.76,18.42C179.35,93.51,173.56,93.4,170.83,91.89Z" fill="#66c652"></path><path d="M174.88,98.79q1.37,1,2.69,2a128.51,128.51,0,0,0-6.39-46,1.4,1.4,0,0,0-2.67.84A125.81,125.81,0,0,1,174.88,98.79Z" fill="#124577"></path><path d="M184.5,89.07a2.48,2.48,0,0,1-.16-1.21l.93-7.95c.43-3.68,14.09-21.36,18.33-18.22,3.37,2.5.46,12.79-.21,15.95a46.5,46.5,0,0,1-2.47,8.92c-1.83,4.2-6.5,5.35-10.81,6.31C188,93.33,185.22,90.92,184.5,89.07Z" fill="#49b230"></path><path d="M197.06,71.37A153.55,153.55,0,0,0,182.56,104a17.79,17.79,0,0,1,2,1.28,151.4,151.4,0,0,1,14.52-32.84C199.83,71.18,197.81,70.1,197.06,71.37Z" fill="#124577"></path></g></g></svg>